# Blender v3.1.2 OBJ File: ''
# www.blender.org
mtllib large.mtl
o Cube.006
v 0.000000 -1.500000 -2.521608
v 0.000000 0.626173 -2.521608
v -2.000000 0.626173 -2.521608
v -2.000000 -1.500000 -2.521608
v 0.000000 1.500000 -2.521608
v -2.000000 1.500000 -2.521608
v 1.000000 -1.500000 -2.521608
v 1.000000 0.626173 -2.521608
v 1.000000 1.500000 -2.521608
v 0.000000 -1.500000 -2.721608
v -2.000000 -1.500000 -2.721608
v -2.000000 0.626173 -2.721608
v 0.000000 0.626173 -2.721608
v -2.000000 1.500000 -2.721608
v 0.000000 1.500000 -2.721608
v 1.000000 -1.500000 -2.721608
v 1.000000 0.626173 -2.721608
v 1.000000 1.500000 -2.721608
vt 0.375000 0.916667
vt 0.576506 0.916667
vt 0.576506 1.000000
vt 0.375000 1.000000
vt 0.625000 0.916667
vt 0.625000 1.000000
vt 0.375000 0.791667
vt 0.576506 0.791667
vt 0.576506 0.833333
vt 0.375000 0.833333
vt 0.625000 0.791667
vt 0.625000 0.833333
vt 0.375000 0.916667
vt 0.375000 1.000000
vt 0.576506 1.000000
vt 0.576506 0.916667
vt 0.625000 1.000000
vt 0.625000 0.916667
vt 0.375000 0.791667
vt 0.375000 0.833333
vt 0.576506 0.833333
vt 0.576506 0.791667
vt 0.625000 0.833333
vt 0.625000 0.791667
vn 0.0000 -0.0000 1.0000
vn 0.0000 0.0000 -1.0000
vn -1.0000 0.0000 0.0000
vn 1.0000 0.0000 0.0000
vn 0.0000 1.0000 0.0000
vn 0.0000 -1.0000 -0.0000
usemtl Material.001
s 1
f 1/1/1 2/2/1 3/3/1 4/4/1
f 2/2/1 5/5/1 6/6/1 3/3/1
f 7/7/1 8/8/1 2/9/1 1/10/1
f 8/8/1 9/11/1 5/12/1 2/9/1
f 10/13/2 11/14/2 12/15/2 13/16/2
f 13/16/2 12/15/2 14/17/2 15/18/2
f 16/19/2 10/20/2 13/21/2 17/22/2
f 17/22/2 13/21/2 15/23/2 18/24/2
f 4/4/3 3/3/3 12/15/3 11/14/3
f 3/3/3 6/6/3 14/17/3 12/15/3
f 8/8/4 7/7/4 16/19/4 17/22/4
f 9/11/4 8/8/4 17/22/4 18/24/4
f 5/12/5 9/11/5 18/24/5 15/23/5
f 7/7/6 1/10/6 10/20/6 16/19/6
f 6/6/5 5/5/5 15/18/5 14/17/5
f 1/1/6 4/4/6 11/14/6 10/13/6
