# Blender 3.1.2
# www.blender.org
mtllib small.mtl
o Cube.007
v -1.000000 -1.500000 -0.513093
v -1.000000 0.626173 -0.513093
v -2.000000 0.626173 -0.513093
v -2.000000 -1.500000 -0.513093
v -1.000000 1.500000 -0.513093
v -2.000000 1.500000 -0.513093
v -1.000000 -1.500000 -0.713093
v -2.000000 -1.500000 -0.713093
v -2.000000 0.626173 -0.713093
v -1.000000 0.626173 -0.713093
v -2.000000 1.500000 -0.713093
v -1.000000 1.500000 -0.713093
vn -0.0000 -0.0000 1.0000
vn -0.0000 -0.0000 -1.0000
vn -1.0000 -0.0000 -0.0000
vn -0.0000 1.0000 -0.0000
vn -0.0000 -1.0000 -0.0000
vn 1.0000 -0.0000 -0.0000
vt 0.375000 0.958333
vt 0.576506 0.958333
vt 0.576506 1.000000
vt 0.375000 1.000000
vt 0.625000 0.958333
vt 0.625000 1.000000
vt 0.375000 0.958333
vt 0.375000 1.000000
vt 0.576506 1.000000
vt 0.576506 0.958333
vt 0.625000 1.000000
vt 0.625000 0.958333
s 1
usemtl Material.001
f 1/1/1 2/2/1 3/3/1 4/4/1
f 2/2/1 5/5/1 6/6/1 3/3/1
f 7/7/2 8/8/2 9/9/2 10/10/2
f 10/10/2 9/9/2 11/11/2 12/12/2
f 4/4/3 3/3/3 9/9/3 8/8/3
f 3/3/3 6/6/3 11/11/3 9/9/3
f 6/6/4 5/5/4 12/12/4 11/11/4
f 1/1/5 4/4/5 8/8/5 7/7/5
f 5/5/6 2/2/6 10/10/6 12/12/6
f 2/2/6 1/1/6 7/7/6 10/10/6
