# Blender 3.1.2
# www.blender.org
mtllib large.mtl
o Cube.006
v 0.000000 -1.500000 0.099999
v 0.000000 0.626173 0.100000
v -2.000000 0.626173 0.100000
v -2.000000 -1.500000 0.099999
v 0.000000 1.500000 0.100000
v -2.000000 1.500000 0.100000
v 1.000000 -1.500000 0.099999
v 1.000000 0.626173 0.100000
v 1.000000 1.500000 0.100000
v 0.000000 -1.500000 -0.100000
v -2.000000 -1.500000 -0.100000
v -2.000000 0.626173 -0.100000
v 0.000000 0.626173 -0.100000
v -2.000000 1.500000 -0.100000
v 0.000000 1.500000 -0.100000
v 1.000000 -1.500000 -0.100000
v 1.000000 0.626173 -0.100000
v 1.000000 1.500000 -0.100000
vn -0.0000 -0.0000 1.0000
vn -0.0000 -0.0000 -1.0000
vn -1.0000 -0.0000 -0.0000
vn 1.0000 -0.0000 -0.0000
vn -0.0000 1.0000 -0.0000
vn -0.0000 -1.0000 -0.0000
vt 0.375000 0.833333
vt 0.375000 0.916667
vt 0.576506 0.916667
vt 0.576506 0.833333
vt 0.576506 1.000000
vt 0.375000 1.000000
vt 0.625000 0.833333
vt 0.625000 0.916667
vt 0.625000 1.000000
vt 0.375000 0.791667
vt 0.576506 0.791667
vt 0.625000 0.791667
vt 0.375000 0.833333
vt 0.375000 0.916667
vt 0.375000 1.000000
vt 0.576506 1.000000
vt 0.576506 0.916667
vt 0.576506 0.833333
vt 0.625000 1.000000
vt 0.625000 0.833333
vt 0.625000 0.916667
vt 0.375000 0.791667
vt 0.576506 0.791667
vt 0.625000 0.791667
s 1
usemtl Material.001
f 1/2/1 2/3/1 3/5/1 4/6/1
f 2/3/1 5/8/1 6/9/1 3/5/1
f 7/10/1 8/11/1 2/4/1 1/1/1
f 8/11/1 9/12/1 5/7/1 2/4/1
f 10/14/2 11/15/2 12/16/2 13/17/2
f 13/17/2 12/16/2 14/19/2 15/21/2
f 16/22/2 10/13/2 13/18/2 17/23/2
f 17/23/2 13/18/2 15/20/2 18/24/2
f 4/6/3 3/5/3 12/16/3 11/15/3
f 3/5/3 6/9/3 14/19/3 12/16/3
f 8/11/4 7/10/4 16/22/4 17/23/4
f 9/12/4 8/11/4 17/23/4 18/24/4
f 5/7/5 9/12/5 18/24/5 15/20/5
f 7/10/6 1/1/6 10/13/6 16/22/6
f 6/9/5 5/8/5 15/21/5 14/19/5
f 1/2/6 4/6/6 11/15/6 10/14/6
